<svg width="84" height="84" viewBox="0 0 84 84" fill="none" xmlns="http://www.w3.org/2000/svg">
<circle cx="31" cy="43.1474" r="16.7" fill="white" stroke="#2DAA96" stroke-width="0.6"/>
<circle cx="42" cy="42" r="41.087" stroke="#2DAA96" stroke-width="1.82609"/>
<circle cx="31" cy="43.5684" r="11.7" fill="white" stroke="#2DAA96" stroke-width="0.6"/>
<path d="M45.3068 15.2253C45.1173 15.1117 44.8716 15.1732 44.7581 15.3627C44.6445 15.5522 44.706 15.7979 44.8955 15.9114L45.3068 15.2253ZM44.7221 26.695C44.7921 26.9045 45.0186 27.0177 45.2282 26.9478C45.4377 26.8779 45.5509 26.6513 45.481 26.4418L44.7221 26.695ZM44.8955 15.9114C44.8955 15.9114 44.8958 15.9116 44.8963 15.9119C44.8968 15.9123 44.8976 15.9128 44.8986 15.9135C44.9006 15.9148 44.9034 15.9168 44.907 15.9194C44.9142 15.9247 44.9236 15.932 44.9353 15.9418C44.9588 15.9615 44.9881 15.9881 45.0227 16.0224C45.0921 16.0909 45.1756 16.1825 45.2687 16.294C45.4546 16.5169 45.6684 16.8074 45.8703 17.1281C46.0725 17.4492 46.2581 17.793 46.392 18.1227C46.5279 18.4574 46.6 18.752 46.6 18.9822H47.4C47.4 18.6054 47.2874 18.2014 47.1332 17.8217C46.977 17.4371 46.767 17.0508 46.5473 16.7018C46.3272 16.3523 46.0926 16.0328 45.883 15.7815C45.6866 15.5461 45.4769 15.3273 45.3068 15.2253L44.8955 15.9114ZM46.6 18.9822C46.6 20.7846 46.0016 22.1386 45.4511 23.3172C45.18 23.8974 44.9064 24.4635 44.7475 25.0033C44.5853 25.5542 44.5294 26.1172 44.7221 26.695L45.481 26.4418C45.3574 26.0712 45.3805 25.6859 45.5149 25.2293C45.6526 24.7616 45.8932 24.2609 46.1759 23.6558C46.7328 22.4636 47.4 20.9728 47.4 18.9822H46.6Z" fill="#2DAA96"/>
<path d="M49.3068 14.2253C49.1173 14.1117 48.8716 14.1732 48.7581 14.3627C48.6445 14.5522 48.706 14.7979 48.8955 14.9114L49.3068 14.2253ZM48.7221 25.695C48.7921 25.9045 49.0186 26.0177 49.2282 25.9478C49.4377 25.8779 49.5509 25.6513 49.481 25.4418L48.7221 25.695ZM48.8955 14.9114C48.8955 14.9114 48.8958 14.9116 48.8963 14.9119C48.8968 14.9123 48.8976 14.9128 48.8986 14.9135C48.9006 14.9148 48.9034 14.9168 48.907 14.9194C48.9142 14.9247 48.9236 14.932 48.9353 14.9418C48.9588 14.9615 48.9881 14.9881 49.0227 15.0224C49.0921 15.0909 49.1756 15.1825 49.2687 15.294C49.4546 15.5169 49.6684 15.8074 49.8703 16.1281C50.0725 16.4492 50.2581 16.793 50.392 17.1227C50.5279 17.4574 50.6 17.752 50.6 17.9822H51.4C51.4 17.6054 51.2874 17.2014 51.1332 16.8217C50.977 16.4371 50.767 16.0508 50.5473 15.7018C50.3272 15.3523 50.0926 15.0328 49.883 14.7815C49.6866 14.5461 49.4769 14.3273 49.3068 14.2253L48.8955 14.9114ZM50.6 17.9822C50.6 19.7846 50.0016 21.1386 49.4511 22.3172C49.18 22.8974 48.9064 23.4635 48.7475 24.0033C48.5853 24.5542 48.5294 25.1172 48.7221 25.695L49.481 25.4418C49.3574 25.0712 49.3805 24.6859 49.5149 24.2293C49.6526 23.7616 49.8932 23.2609 50.1759 22.6558C50.7328 21.4636 51.4 19.9728 51.4 17.9822H50.6Z" fill="#2DAA96"/>
<circle cx="45.5" cy="41.5" r="9.19776" fill="white" stroke="#2DAA96" stroke-width="0.604444"/>
<circle cx="45.4998" cy="41.4998" r="5.39777" fill="white" stroke="#2DAA96" stroke-width="0.604444"/>
<mask id="path-8-inside-1_6365_32665" fill="white">
<path d="M16 42.5C14.8954 42.5 13.9927 43.3967 14.0701 44.4985C14.5498 51.3269 17.4757 57.7808 22.3475 62.6525C27.6922 67.9973 34.9413 71 42.5 71C50.0587 71 57.3078 67.9973 62.6525 62.6525C67.5243 57.7808 70.4502 51.3269 70.9299 44.4985C71.0073 43.3967 70.1046 42.5 69 42.5L42.5 42.5L16 42.5Z"/>
</mask>
<path d="M16 42.5C14.8954 42.5 13.9927 43.3967 14.0701 44.4985C14.5498 51.3269 17.4757 57.7808 22.3475 62.6525C27.6922 67.9973 34.9413 71 42.5 71C50.0587 71 57.3078 67.9973 62.6525 62.6525C67.5243 57.7808 70.4502 51.3269 70.9299 44.4985C71.0073 43.3967 70.1046 42.5 69 42.5L42.5 42.5L16 42.5Z" fill="#EAF7F5" stroke="#2DAA96" stroke-width="1.02472" mask="url(#path-8-inside-1_6365_32665)"/>
<path d="M44.3019 67.3894C49.5412 66.8176 57.0219 62.9791 61.8171 57.3661" stroke="#2DAA96" stroke-width="0.8" stroke-linecap="round"/>
</svg>
