<svg width="84" height="84" viewBox="0 0 84 84" fill="none" xmlns="http://www.w3.org/2000/svg">
<circle cx="42" cy="42" r="41.087" stroke="#2DAA96" stroke-width="1.82609"/>
<rect x="21.1476" y="25.0977" width="4.91114" height="3.90089" rx="0.767255" transform="rotate(-45 21.1476 25.0977)" fill="white" stroke="#2DAA96" stroke-width="0.657647"/>
<rect x="37.0105" y="15.9196" width="9.68438" height="4.91114" fill="#EAF7F5" stroke="#2DAA96" stroke-width="0.657647"/>
<rect x="34.8181" y="14.3288" width="13.6621" height="2.52452" rx="0.767255" fill="#EAF7F5" stroke="#2DAA96" stroke-width="0.657647"/>
<circle cx="42.1615" cy="43.4349" r="24.3329" transform="rotate(180 42.1615 43.4349)" fill="#EAF7F5" stroke="#2DAA96" stroke-width="0.657647"/>
<path d="M21.0112 43.4345C21.0112 31.7532 30.4807 22.2837 42.162 22.2837C53.8432 22.2837 63.3128 31.7532 63.3128 43.4345C63.3128 55.1157 53.8433 64.5852 42.162 64.5852C30.4807 64.5852 21.0112 55.1157 21.0112 43.4345Z" fill="white" stroke="#2DAA96" stroke-width="0.657647"/>
<path d="M42.1621 24.7402V27.5246" stroke="#2DAA96" stroke-width="0.657647" stroke-linecap="round"/>
<path d="M42.1621 61.7324L42.1621 58.948" stroke="#2DAA96" stroke-width="0.657647" stroke-linecap="round"/>
<path d="M23.665 43.2363L26.4494 43.2363" stroke="#2DAA96" stroke-width="0.657647" stroke-linecap="round"/>
<path d="M60.6582 43.2363L57.8738 43.2363" stroke="#2DAA96" stroke-width="0.657647" stroke-linecap="round"/>
<path d="M29.083 56.3145L31.0519 54.3456" stroke="#2DAA96" stroke-width="0.657647" stroke-linecap="round"/>
<path d="M55.2402 30.1572L53.2714 32.1261" stroke="#2DAA96" stroke-width="0.657647" stroke-linecap="round"/>
<path d="M55.2402 56.3145L53.2714 54.3456" stroke="#2DAA96" stroke-width="0.657647" stroke-linecap="round"/>
<path d="M29.083 30.1572L31.0519 32.1261" stroke="#2DAA96" stroke-width="0.657647" stroke-linecap="round"/>
<path d="M46.5048 32.1958C46.9795 31.514 48.0415 32.0372 47.7902 32.8291L44.4726 43.2825C44.3385 43.7052 43.8595 43.9093 43.4617 43.7133L40.5126 42.2604C40.1148 42.0644 39.9848 41.5603 40.2382 41.1964L46.5048 32.1958Z" fill="#EAF7F5" stroke="#2DAA96" stroke-width="0.621111"/>
<path d="M34.0569 39.2218C33.4231 38.7017 34.0046 37.6945 34.7719 37.9834L44.1315 41.5076C44.5501 41.6652 44.7274 42.1607 44.5037 42.5481L42.8759 45.3674C42.6523 45.7548 42.1346 45.849 41.7888 45.5653L34.0569 39.2218Z" fill="#EAF7F5" stroke="#2DAA96" stroke-width="0.621111"/>
<circle cx="41.9051" cy="43.037" r="3.25111" fill="white" stroke="#2DAA96" stroke-width="0.657647"/>
</svg>
