<svg width="84" height="84" viewBox="0 0 84 84" fill="none" xmlns="http://www.w3.org/2000/svg">
<path d="M66.4302 26H17.6913C16.9307 26 16.4485 26.8155 16.8151 27.4819L22.9829 38.6962C23.1587 39.0158 23.4944 39.2143 23.8591 39.2143H59.7017C60.0529 39.2143 60.3784 39.03 60.5592 38.7288L67.2877 27.5145C67.6876 26.848 67.2075 26 66.4302 26Z" fill="white" stroke="#2DAA96" stroke-width="0.6" stroke-linecap="round"/>
<path d="M66.4302 37.8926H17.6913C16.9307 37.8926 16.4485 38.708 16.8151 39.3745L22.9829 50.5888C23.1587 50.9083 23.4944 51.1069 23.8591 51.1069H59.7017C60.0529 51.1069 60.3784 50.9226 60.5592 50.6214L67.2877 39.4071C67.6876 38.7405 67.2075 37.8926 66.4302 37.8926Z" fill="#EAF7F5" stroke="#2DAA96" stroke-width="0.6" stroke-linecap="round"/>
<path d="M66.4302 49.7861H17.6913C16.9307 49.7861 16.4485 50.6016 16.8151 51.2681L22.9829 62.4823C23.1587 62.8019 23.4944 63.0004 23.8591 63.0004H59.7017C60.0529 63.0004 60.3784 62.8161 60.5592 62.5149L67.2877 51.3006C67.6876 50.6341 67.2075 49.7861 66.4302 49.7861Z" fill="white" stroke="#2DAA96" stroke-width="0.6" stroke-linecap="round"/>
<path d="M43.0898 52.4287H61.5898" stroke="#2DAA96" stroke-width="0.8" stroke-linecap="round"/>
<path d="M45.0723 40.5361H63.5723" stroke="#2DAA96" stroke-width="0.8" stroke-linecap="round"/>
<path d="M45.0723 28.6426H63.5723" stroke="#2DAA96" stroke-width="0.8" stroke-linecap="round"/>
<circle cx="42" cy="42" r="41.087" stroke="#2DAA96" stroke-width="1.82609"/>
</svg>
