<svg width="19" height="19" viewBox="0 0 19 19" fill="none" xmlns="http://www.w3.org/2000/svg">
<path d="M4.86103 7.73947L3.74825 7.67163C3.74637 7.67149 3.74435 7.67135 3.74232 7.67121C2.94932 7.60684 2.23752 7.20714 1.78929 6.5743L0.909581 5.33252C0.143885 4.25145 -0.152769 2.94572 0.0745258 1.65598C0.119175 1.40267 0.253849 1.16925 0.453545 0.998943C0.653385 0.828497 0.910304 0.727842 1.17705 0.715608C2.53562 0.653046 3.84694 1.09306 4.87057 1.95405L6.04649 2.94322C6.64573 3.44719 6.97287 4.17499 6.94426 4.94033C6.94412 4.94213 6.94412 4.94408 6.94397 4.94603L6.88054 6.01694C6.85583 6.43444 7.01492 6.84637 7.3162 7.14639L16.5031 16.2267C16.749 16.4735 16.8761 16.812 16.8606 17.18C16.8435 17.5851 16.6504 17.983 16.3437 18.2445C16.0667 18.4807 15.686 18.6153 15.3054 18.6153C15.2646 18.6153 15.2239 18.6138 15.1833 18.6106C14.8016 18.5813 14.4674 18.4194 14.2411 18.1533L5.97482 8.29168C5.70071 7.9672 5.29467 7.76589 4.86103 7.73947ZM6.41612 7.94801L14.6817 17.8088C14.808 17.9573 15.0022 18.0488 15.2285 18.0662C15.4977 18.0869 15.7737 18.0007 15.967 17.8358C16.1604 17.6708 16.2823 17.4175 16.2932 17.1579C16.3024 16.9398 16.2315 16.7433 16.0948 16.6063L6.90857 7.52662C6.49675 7.11664 6.28 6.55511 6.31353 5.98594L6.37696 4.9178C6.39849 4.31874 6.14201 3.74915 5.67282 3.35446L4.49689 2.36529C3.58424 1.59773 2.41468 1.20581 1.20407 1.26115C1.06622 1.26754 0.933568 1.31954 0.830252 1.40768C0.726936 1.49568 0.657433 1.61636 0.634312 1.74718C0.431726 2.89706 0.696157 4.06099 1.37877 5.02471L2.25847 6.26663C2.60946 6.76212 3.1665 7.07535 3.78726 7.12665L4.89701 7.19421C5.4883 7.23036 6.04173 7.5048 6.41612 7.94801Z" fill="#4D4D4F"/>
<path d="M0.524805 16.1579L6.68462 10.7599C6.80051 10.6583 6.97998 10.6663 7.08575 10.7778C7.19123 10.8893 7.18285 11.0621 7.06696 11.1638L0.908737 16.5605C0.762216 16.6907 0.679129 16.8827 0.67465 17.101C0.669303 17.3607 0.77522 17.6205 0.958011 17.7964C1.14066 17.9721 1.41029 18.0743 1.68079 18.069C1.90765 18.0647 2.10721 17.9848 2.24116 17.8454L7.73007 12.0474C7.8357 11.9358 8.01531 11.9279 8.13119 12.0293C8.24708 12.131 8.25546 12.3038 8.14984 12.4153L2.65962 18.2146C2.41831 18.4657 2.07469 18.6081 1.69192 18.6153C1.68195 18.6154 1.67212 18.6156 1.66215 18.6156C1.25076 18.6156 0.839377 18.455 0.556594 18.1828C0.266731 17.9039 0.0986795 17.4956 0.10706 17.0903C0.114574 16.722 0.262396 16.3914 0.524805 16.1579Z" fill="#4D4D4F"/>
<path d="M15.5141 7.68776C15.0442 8.10428 14.4337 8.34174 13.795 8.35647C13.793 8.35661 13.791 8.35661 13.7891 8.35661L12.6741 8.35995C12.2395 8.3612 11.8217 8.53874 11.5285 8.84612L11.0374 9.36483C10.9813 9.42405 10.9046 9.45408 10.8274 9.45408C10.7592 9.45408 10.6907 9.43059 10.6364 9.3829C10.5204 9.28127 10.512 9.10846 10.6176 8.99697L11.1095 8.47756C11.51 8.05743 12.0797 7.81552 12.6722 7.81358L13.7842 7.81024C14.2782 7.79815 14.7506 7.61616 15.1166 7.29737L18.3477 3.60179C18.3807 3.56397 18.3782 3.5092 18.3419 3.4743C18.3171 3.45025 18.2879 3.44678 18.2727 3.44678C18.2575 3.44678 18.2284 3.45025 18.2034 3.4743L15.2622 6.30417C14.9715 6.58389 14.4984 6.58389 14.2077 6.30403L13.862 5.97162V5.97148L13.2484 5.38104C13.2484 5.38104 13.2482 5.38104 13.2482 5.3809L13.2481 5.38076L12.9026 5.04835C12.6118 4.76863 12.6118 4.31346 12.9026 4.03374L15.8437 1.20401C15.8818 1.16731 15.8818 1.10739 15.8437 1.07068C15.8074 1.03579 15.7505 1.03343 15.7112 1.06512L11.8701 4.17402C11.5387 4.52603 11.3495 4.98065 11.3369 5.45584L11.3336 6.52578C11.3316 7.09579 11.08 7.64383 10.6428 8.03004L10.1165 8.49119C10.0005 8.59282 9.821 8.58475 9.71537 8.47325C9.60989 8.36162 9.61827 8.18895 9.73416 8.08732L10.2596 7.62687C10.5799 7.34409 10.7643 6.94202 10.7657 6.52397L10.7692 5.45125C10.7692 5.4493 10.7692 5.44736 10.7693 5.44541C10.7847 4.83092 11.0315 4.24353 11.4644 3.79142C11.4725 3.78294 11.4811 3.77488 11.4904 3.76737L15.3458 0.647072C15.6122 0.431304 15.9989 0.447431 16.2451 0.684331C16.5048 0.934161 16.5048 1.34053 16.2451 1.59022L13.304 4.4201C13.2346 4.48683 13.2346 4.59541 13.304 4.66214L13.4489 4.80144L16.7269 1.64778C16.8377 1.54101 17.0175 1.54101 17.1283 1.64778C17.2391 1.75441 17.2391 1.92736 17.1283 2.03399L13.8503 5.1878L14.0628 5.39202L17.3407 2.23836C17.4515 2.13173 17.6313 2.13173 17.7421 2.23836C17.8531 2.345 17.8531 2.51794 17.7421 2.62458L14.4643 5.77838L14.6091 5.91782C14.6785 5.98455 14.7913 5.98455 14.8607 5.91782L17.8019 3.08809C17.9277 2.96714 18.0948 2.9004 18.2727 2.9004C18.4506 2.9004 18.6178 2.96714 18.7435 3.08809C18.9897 3.32499 19.0063 3.69702 18.7822 3.95352L15.539 7.66273C15.5313 7.67163 15.5229 7.67997 15.5141 7.68776Z" fill="#4D4D4F"/>
</svg>
