<svg width="20" height="28" viewBox="0 0 20 28" fill="none" xmlns="http://www.w3.org/2000/svg">
<path d="M1.0226 6.28856C0.719948 7.28281 0.607672 8.30704 0.69554 9.34127C0.783408 10.4105 1.0763 11.4397 1.56933 12.399C1.95986 13.1534 2.45777 13.8379 3.05332 14.4275C3.60981 14.977 4.24441 15.4417 4.96688 15.8214C5.18167 15.9513 6.05546 16.5009 7.05129 17.1754C8.98438 18.4894 9.72149 19.1689 9.98998 19.4587C10.4098 19.9133 11.0249 20.1631 11.6448 20.1132L11.8938 20.0932L13.8806 23.9603L13.8122 24.1352C13.6511 24.5399 13.6023 24.9795 13.6755 25.4142C13.7341 25.7589 13.8659 26.0787 14.0661 26.3635C14.2662 26.6483 14.5298 26.8931 14.8471 27.078C15.0814 27.2129 15.3401 27.2978 15.6135 27.3228C16.0968 27.3677 16.5703 27.2678 16.9754 27.038C17.1902 26.9181 17.3806 26.7682 17.5466 26.5883L17.6393 26.4834L17.776 26.4634C18.0103 26.4284 18.2446 26.3535 18.4594 26.2386C18.8695 26.0237 19.2161 25.684 19.4601 25.2493C19.5919 25.0095 19.6749 24.7397 19.6945 24.4649C19.7433 23.8854 19.6066 23.3408 19.3088 22.8861C19.0208 22.4514 18.5961 22.1317 18.108 21.9768C18.0445 21.9568 17.9762 21.9418 17.9127 21.9218L17.737 21.8819L15.7502 18.0148L15.9162 17.8099C16.0187 17.68 16.1114 17.5351 16.1798 17.3802C16.3653 16.9705 16.419 16.5009 16.3311 16.0562C16.2335 15.5816 16.1261 14.5424 16.1602 12.2891C16.1798 11.07 16.2286 10.0108 16.2481 9.71599C16.458 8.0972 16.1798 6.47342 15.4524 5.01451C14.9643 4.04524 14.3004 3.20088 13.4803 2.5064C11.9133 1.18739 9.86306 0.522885 7.83722 0.692758C6.79745 0.78269 5.79674 1.07747 4.86437 1.57709C3.92711 2.07672 3.11678 2.75121 2.44801 3.58559C1.80365 4.38499 1.32526 5.2943 1.0226 6.28856ZM12.7383 19.7135L14.974 18.5094L17.1365 22.7162C17.1609 22.7612 17.1951 22.7962 17.3123 22.8162C17.4929 22.7962 17.6686 22.8162 17.8444 22.8711C18.4643 23.071 18.8451 23.6805 18.7914 24.385C18.7816 24.5249 18.7377 24.6648 18.6693 24.7847C18.3716 25.3193 17.8395 25.6091 17.2879 25.5391C17.2049 25.5291 17.1268 25.5691 17.0926 25.644C16.8339 26.1537 16.3018 26.4334 15.7111 26.3835C15.6428 26.3785 15.5744 26.3635 15.5012 26.3435C15.4378 26.3235 15.3743 26.2935 15.3108 26.2586C14.9154 26.0287 14.6567 25.669 14.5884 25.2443C14.52 24.8446 14.6274 24.4349 14.8862 24.1202C14.935 24.0652 14.9398 23.9853 14.9057 23.9153L12.7383 19.7135ZM1.8964 6.56835C2.44801 4.7647 3.64887 3.28581 5.28906 2.40647C6.91461 1.53712 8.77447 1.36725 10.5367 1.92683C12.3282 2.4964 13.7829 3.74547 14.6372 5.44419C15.2913 6.74322 15.5305 8.19712 15.3353 9.64104C15.3206 9.91084 15.1302 13.4782 15.3353 15.5366C15.3597 15.8014 15.3938 16.0412 15.4378 16.2461C15.5403 16.7557 15.3011 17.2753 14.8569 17.5201L12.0158 19.049C11.7473 19.1939 11.4398 19.2239 11.1518 19.1289C10.9663 19.069 10.7954 18.959 10.6587 18.8142C10.5172 18.6593 10.3414 18.4894 10.1364 18.3145C8.67684 17.0405 5.94319 15.3268 5.4111 14.997L5.40134 14.992C4.10773 14.3275 3.06308 13.2833 2.38455 11.9643C1.52052 10.2906 1.34967 8.37199 1.8964 6.56835Z" fill="#4D4D4F"/>
</svg>
