<svg width="28" height="28" viewBox="0 0 28 28" fill="none" xmlns="http://www.w3.org/2000/svg">
<path d="M12.379 17.3067C13.5381 17.3067 14.4801 16.3688 14.4801 15.2139C14.4801 14.059 13.5381 13.1211 12.379 13.1211C11.2199 13.1211 10.2778 14.059 10.2778 15.2139C10.2778 16.3688 11.2199 17.3067 12.379 17.3067ZM12.379 13.8992C13.1039 13.8992 13.6978 14.489 13.6978 15.2139C13.6978 15.9388 13.108 16.5286 12.379 16.5286C11.6499 16.5286 11.0601 15.9388 11.0601 15.2139C11.0601 14.489 11.6499 13.8992 12.379 13.8992Z" fill="#4D4D4F"/>
<path d="M24.8176 6.22015C22.737 3.32462 19.6569 1.41611 16.1469 0.842733C15.4219 0.723963 14.7011 0.666626 13.9925 0.666626C7.57851 0.666626 1.90586 5.31913 0.836867 11.8515C0.271651 15.2999 1.12357 18.8139 3.23289 21.7422C5.33812 24.6704 8.40176 26.5953 11.8504 27.1564C15.3605 27.7298 18.8869 26.8984 21.7785 24.8179C24.6743 22.7374 26.5829 19.6575 27.1563 16.1477C27.7297 12.6419 26.8983 9.11568 24.8176 6.22015ZM14.0171 26.5134C13.3413 26.5134 12.6614 26.4602 11.9815 26.3455C11.1377 26.2063 10.3186 25.9769 9.52809 25.6657L9.22091 25.5223V23.5032H15.5366V26.3947L15.2294 26.4438C14.828 26.4848 14.4225 26.5134 14.0171 26.5134ZM19.1573 22.6677H16.3148V11.274H19.1573V22.6677ZM16.6302 10.4959L17.736 8.7307L18.8419 10.4959H16.6302ZM17.3469 7.60853H11.0312V6.54779H17.3469V7.60853ZM17.0315 8.38667L15.7086 10.4959H9.53629L10.8592 8.38667H17.0315ZM15.5366 11.274V22.6677H9.22091V11.274H15.5366ZM16.622 26.2267L16.3148 26.2759V23.5073H19.1573V25.3708L18.8501 25.5264C18.1292 25.8336 17.3838 26.0629 16.622 26.2267ZM26.3453 16.0166C25.8088 19.3094 24.0148 22.1968 21.2993 24.1503C20.9594 24.396 20.6031 24.6172 20.2467 24.822L19.9395 24.9776V10.8849C19.9395 10.7989 19.9109 10.7129 19.8617 10.6515L19.8535 10.6351L18.1333 7.88702V6.66246C18.1333 6.171 17.7319 5.76964 17.2363 5.76964H11.15C10.6544 5.76964 10.253 6.171 10.253 6.66246V7.88702L8.57787 10.5573L8.58607 10.5737L8.53282 10.6433C8.47548 10.7129 8.44681 10.7989 8.44681 10.8849V25.1619L8.13963 25.0186C6.64877 24.2036 5.31764 23.0732 4.22817 21.6766L4.12987 21.5497L7.45154 19.2234C7.63585 19.0924 7.6809 18.8384 7.55393 18.65C7.4884 18.5599 7.3942 18.4985 7.28771 18.478C7.18122 18.4576 7.07063 18.4862 6.98462 18.5477L3.65885 20.878L3.57284 20.7428C1.85262 18.093 1.17272 14.9846 1.66421 11.9825C2.20076 8.68974 3.99471 5.79831 6.7102 3.84475C9.41341 1.89528 12.7228 1.11304 16.0158 1.65365C19.0999 2.1533 21.8687 3.7997 23.8182 6.28158L23.9165 6.40854L20.73 8.65288C20.5457 8.78394 20.5007 9.04196 20.6317 9.22626C20.6973 9.31636 20.7915 9.37779 20.9021 9.39417C21.0085 9.41055 21.115 9.38598 21.2051 9.32455L24.3957 7.07611L24.4818 7.21126C26.1815 9.83239 26.845 12.9614 26.3453 16.0166Z" fill="#4D4D4F"/>
</svg>
