<svg width="28" height="28" viewBox="0 0 28 28" fill="none" xmlns="http://www.w3.org/2000/svg">
<path d="M13.9998 0.666626C6.64915 0.666626 0.666504 6.64927 0.666504 14C0.666504 21.2281 6.77166 27.3333 13.9998 27.3333C21.3505 27.3333 27.3332 21.3506 27.3332 14C27.3332 6.64927 21.3546 0.666626 13.9998 0.666626ZM13.9998 26.4349C10.7696 26.4349 7.78034 25.124 5.54246 23.0209L8.41331 20.2195C8.593 20.0479 8.593 19.7621 8.42148 19.5824C8.24588 19.4027 7.96411 19.4027 7.78442 19.5742L4.9054 22.3797C2.84721 20.1541 1.56492 17.1975 1.56492 14C1.56492 7.1434 7.14328 1.56504 13.9998 1.56504C17.2791 1.56504 20.2643 2.84325 22.4899 4.92594L19.7375 7.62528C19.5619 7.80088 19.5578 8.08265 19.7293 8.26234C19.8191 8.35218 19.9335 8.3971 20.0519 8.3971C20.1663 8.3971 20.2806 8.35626 20.3664 8.27051L23.1269 5.563C25.1811 7.78046 26.4388 10.7452 26.4388 14C26.4348 20.8565 20.8564 26.4349 13.9998 26.4349Z" fill="#4D4D4F"/>
<path d="M19.4392 19.1169C19.2636 18.9413 18.9777 18.9413 18.8021 19.1169C18.6265 19.2925 18.6265 19.5784 18.8021 19.754L20.6643 21.6162C20.75 21.7019 20.8685 21.7468 20.9828 21.7468C21.0972 21.7468 21.2115 21.7019 21.3013 21.6162C21.4769 21.4406 21.4769 21.1547 21.3013 20.9791L19.4392 19.1169Z" fill="#4D4D4F"/>
<path d="M19.3616 17.3895C21.1095 15.8295 21.2769 13.1261 19.7373 11.3578C19.4882 11.076 19.1452 10.9045 18.7654 10.88C18.4142 10.8596 18.0712 10.9739 17.7649 11.2149L17.7404 11.2353C15.9926 12.7953 15.8251 15.4987 17.3688 17.2669C17.6138 17.5446 17.9691 17.7202 18.3407 17.7447C18.3693 17.7447 18.3979 17.7488 18.4265 17.7488C18.7532 17.7488 19.0798 17.6304 19.329 17.4221L19.3616 17.3895ZM18.7613 16.7197C18.6633 16.8096 18.5326 16.8545 18.3938 16.8463C18.259 16.8382 18.1283 16.7769 18.0426 16.6748C16.8256 15.2823 16.9563 13.1546 18.3284 11.9173C18.4224 11.8478 18.5571 11.7703 18.7082 11.7784C18.843 11.7866 18.9696 11.8478 19.0594 11.9499C20.2723 13.3384 20.1457 15.4619 18.7858 16.6952L18.7613 16.7197Z" fill="#4D4D4F"/>
<path d="M14.5635 13.5221C14.5921 13.5221 14.6166 13.5262 14.6452 13.5262C14.927 13.5262 15.2047 13.4405 15.4374 13.2853L15.5844 13.1709C17.3323 11.611 17.4997 8.90753 15.9561 7.13928C15.711 6.85751 15.3558 6.68599 14.9882 6.66149C14.6452 6.63699 14.294 6.75541 13.9836 6.99635L13.9632 7.01269C12.2154 8.57267 12.0479 11.2761 13.5875 13.0403C13.8407 13.3302 14.1837 13.4976 14.5635 13.5221ZM14.5513 7.69875C14.6452 7.62933 14.784 7.55174 14.9351 7.55991C15.0699 7.56807 15.1965 7.62933 15.2863 7.73142C16.4706 9.08313 16.3808 11.1372 15.1107 12.3869H15.0781L14.9678 12.5175C14.8698 12.5951 14.7432 12.636 14.6207 12.6278C14.4818 12.6196 14.3593 12.5584 14.2695 12.4563C13.0525 11.0637 13.1791 8.93203 14.5513 7.69875Z" fill="#4D4D4F"/>
<path d="M11.1205 17.5814L11.1083 17.5937C10.8265 17.8591 10.6632 18.1899 10.6387 18.5533C10.6142 18.9209 10.7448 19.2966 10.9939 19.5783C11.8393 20.5258 13.0154 21.0076 14.1997 21.0076C15.1879 21.0076 16.1762 20.6728 16.9807 19.9867L17.0501 19.9255C17.3155 19.6804 17.4748 19.3456 17.4993 18.978C17.5238 18.6023 17.3972 18.2389 17.144 17.9571C15.5881 16.2093 12.8847 16.0418 11.1205 17.5814ZM16.4702 19.2394L16.413 19.2925C15.0164 20.489 12.897 20.3542 11.6718 18.978C11.582 18.8759 11.533 18.7412 11.5412 18.6064C11.5493 18.4717 11.6065 18.3573 11.7208 18.247C13.1175 17.0342 15.2492 17.1689 16.4784 18.5492C16.5682 18.6513 16.6172 18.782 16.6091 18.9168C16.6009 19.0434 16.5519 19.1536 16.4702 19.2394Z" fill="#4D4D4F"/>
<path d="M13.1503 15.7967L13.2401 15.617C13.481 15.3761 13.6199 15.0576 13.6444 14.7145C13.6689 14.3429 13.5382 13.9713 13.2891 13.6936C11.7291 11.9458 9.02571 11.7743 7.26155 13.3179L7.2493 13.3302C6.96752 13.5956 6.80826 13.9264 6.78375 14.2898C6.75925 14.6655 6.88585 15.029 7.13904 15.3148C7.98437 16.2623 9.16048 16.7441 10.3448 16.7441C11.2963 16.7441 12.2519 16.4338 13.0359 15.7967H13.1503ZM12.5785 15.0127L12.55 15.0372C11.1533 16.2296 9.03388 16.0908 7.81285 14.7186C7.72301 14.6165 7.67401 14.4818 7.68217 14.347C7.69034 14.2122 7.74751 14.0979 7.86186 13.9876C9.25849 12.7748 11.3902 12.9055 12.6235 14.2898C12.7133 14.3919 12.7582 14.5267 12.7501 14.6574C12.7378 14.8003 12.6766 14.9228 12.5785 15.0127Z" fill="#4D4D4F"/>
<path d="M10.5249 11.4517C10.5371 11.4517 10.5535 11.4517 10.5657 11.4517C10.9087 11.4517 11.2354 11.3292 11.4927 11.1005C11.7622 10.8636 11.9256 10.5369 11.9623 10.1816C12.0808 8.94834 11.7092 7.77223 10.9087 6.86973C10.1083 5.96723 8.9894 5.4486 7.75203 5.41593C7.01696 5.39143 6.38399 5.95498 6.31048 6.68597C6.19205 7.91925 6.56775 9.09536 7.36408 9.99786C8.16449 10.8963 9.28751 11.4149 10.5249 11.4517ZM7.2089 6.76764C7.2334 6.50628 7.45392 6.30618 7.71528 6.30618C7.71936 6.30618 7.72344 6.30618 7.73161 6.30618C8.71579 6.33477 9.61012 6.74314 10.2431 7.45779C10.8761 8.17244 11.1701 9.10761 11.0762 10.0918C11.0639 10.2225 11.0027 10.3409 10.9047 10.4266C10.8067 10.5124 10.6801 10.5573 10.5535 10.5532C9.5652 10.5247 8.67495 10.1163 8.04197 9.40164C7.409 8.6829 7.11497 7.74773 7.2089 6.76764Z" fill="#4D4D4F"/>
</svg>
