<svg width="20" height="26" viewBox="0 0 20 26" fill="none" xmlns="http://www.w3.org/2000/svg">
<path d="M9.98048 12.3154C7.96382 12.3154 6.22217 13.9369 6.22217 15.8144C6.22217 17.692 7.96382 19.3135 9.98048 19.3135C11.9971 19.3135 13.7388 17.692 13.7388 15.8144C13.7388 13.8516 11.9971 12.3154 9.98048 12.3154Z" fill="#4D4D4F"/>
<path d="M14.5638 3.61059C14.5638 3.52525 12.9138 0.964995 10.4388 0.794312C10.3471 0.794312 10.2555 0.794312 10.1638 0.794312C8.69713 0.794312 7.23046 1.73307 5.85546 3.52525C3.19712 7.02426 -1.01955 15.0464 1.63879 20.5083C2.92212 23.1539 5.85546 24.7754 10.2555 25.2021H10.3471C10.6221 25.2021 16.2138 25.1167 18.6888 21.191C20.8888 17.3506 19.5138 11.462 14.5638 3.61059ZM17.4971 20.6789C15.5721 23.7513 11.4471 24.0073 10.2555 24.0073C6.22212 23.6659 3.74712 22.3858 2.55545 20.0816C0.355453 15.5584 3.65546 8.04836 6.68046 4.20798C7.23046 3.35457 8.51379 1.9891 9.98046 1.9891H10.1638C11.6305 1.9891 12.8221 3.43991 13.3721 4.12264V4.20798C18.2305 11.6327 19.6971 17.2653 17.4971 20.6789Z" fill="#4D4D4F"/>
</svg>
