<svg width="28" height="24" viewBox="0 0 28 24" fill="none" xmlns="http://www.w3.org/2000/svg">
<path d="M17.8322 1.1804C15.2353 -0.227797 12.8611 -0.376028 11.0803 0.735707C9.29962 1.84744 8.33506 3.9968 8.40926 6.96142C8.48346 9.77782 9.44801 12.9648 11.3029 15.9294C13.0836 18.894 15.4579 21.2657 17.9064 22.5998C20.4291 24.008 22.8776 24.1563 24.6583 23.0445C26.439 21.9328 27.4036 19.7834 27.3294 16.8188C27.2552 14.0024 26.2906 10.8154 24.4357 7.85081C22.655 4.88618 20.2807 2.51448 17.8322 1.1804ZM26.5132 16.8188C26.5874 19.4129 25.7713 21.414 24.2131 22.3034C22.655 23.2669 20.5033 23.0445 18.2032 21.8587C15.8289 20.5987 13.603 18.3011 11.8965 15.4847C10.19 12.6683 9.22542 9.62959 9.15122 6.96142C9.07703 4.36737 9.89319 2.36625 11.4513 1.40275C13.0094 0.439244 15.1611 0.661591 17.4612 1.84744C19.8355 3.10741 22.0614 5.40499 23.768 8.22139C25.4745 11.0378 26.5132 14.0765 26.5132 16.8188Z" fill="#4D4D4F"/>
<path d="M19.5386 15.2624C17.6837 14.8177 15.7546 14.5953 14.1223 14.6694C13.9739 14.6694 13.8255 14.8177 13.7513 14.9659C13.6771 15.1141 13.7513 15.3365 13.8997 15.4106C15.3836 16.2259 17.1643 16.8929 19.0192 17.4117C20.8741 17.8564 22.8033 18.0788 24.4356 18.0046C24.5098 18.0046 24.584 18.0047 24.584 17.9305C24.6582 17.8564 24.7324 17.7823 24.7324 17.7082C24.8066 17.56 24.7324 17.3376 24.584 17.2635C23.1742 16.4482 21.3935 15.7812 19.5386 15.2624ZM19.1676 16.5965C17.9805 16.3 16.7933 15.9294 15.7546 15.4106C16.9417 15.4847 18.1289 15.7071 19.316 16.0035C20.5032 16.3 21.6903 16.6706 22.7291 17.1894C21.6161 17.1153 20.429 16.8929 19.1676 16.5965Z" fill="#4D4D4F"/>
<path d="M18.1286 10.6672C15.9027 10.1484 13.6768 9.85195 11.6735 9.92607C11.5251 9.92607 11.3767 10.0743 11.3025 10.2225C11.2283 10.3708 11.3025 10.5931 11.4509 10.6672C13.1575 11.6307 15.3092 12.446 17.5351 13.0389C19.761 13.5577 21.9869 13.8542 23.9902 13.7801C24.0644 13.7801 24.1386 13.7801 24.1386 13.706C24.2128 13.6318 24.2869 13.5577 24.2869 13.4836C24.3611 13.3354 24.2869 13.113 24.1386 13.0389C22.432 12.0013 20.3545 11.186 18.1286 10.6672ZM17.7576 12.2237C16.1995 11.8531 14.6414 11.3343 13.3059 10.6672C14.7898 10.7413 16.3479 10.9637 17.9802 11.3343C19.5384 11.7048 21.0965 12.2237 22.432 12.8907C20.8739 12.8907 19.3158 12.6683 17.7576 12.2237Z" fill="#4D4D4F"/>
<path d="M16.6451 6.29447C14.7901 5.84978 12.861 5.62743 11.2287 5.70154C11.0803 5.70154 10.9319 5.84978 10.8577 5.99801C10.7835 6.14624 10.8577 6.36859 11.0061 6.4427C12.49 7.25797 14.2708 7.92501 16.1257 8.44382C17.9806 8.88852 19.9097 9.11086 21.542 9.03675C21.6162 9.03675 21.6904 9.03675 21.6904 8.96263C21.7646 8.88852 21.8388 8.8144 21.8388 8.74029C21.913 8.59206 21.8388 8.36971 21.6904 8.29559C20.3549 7.4062 18.5742 6.73916 16.6451 6.29447ZM16.3483 7.62855C15.1611 7.33209 13.974 6.96151 12.9352 6.4427C14.1224 6.51682 15.3095 6.73916 16.4967 7.03563C17.6838 7.33209 18.8709 7.70267 19.9097 8.22148C18.7968 8.14736 17.5354 7.92501 16.3483 7.62855Z" fill="#4D4D4F"/>
<path d="M5.74021 17.8352C8.54234 17.8352 10.8139 15.5538 10.8139 12.7394C10.8139 9.92513 8.54234 7.64368 5.74021 7.64368C2.93808 7.64368 0.666504 9.92513 0.666504 12.7394C0.666504 15.5538 2.93808 17.8352 5.74021 17.8352Z" fill="white"/>
<path d="M5.74 17.1073C8.14183 17.1073 10.0889 15.1518 10.0889 12.7395C10.0889 10.3272 8.14183 8.3717 5.74 8.3717C3.33818 8.3717 1.39111 10.3272 1.39111 12.7395C1.39111 15.1518 3.33818 17.1073 5.74 17.1073Z" fill="#4D4D4F"/>
<path fill-rule="evenodd" clip-rule="evenodd" d="M3.65625 12.7395C3.65625 12.3877 3.9402 12.1025 4.29046 12.1025H7.18512C7.53539 12.1025 7.81934 12.3877 7.81934 12.7395C7.81934 13.0913 7.53539 13.3765 7.18512 13.3765H4.29046C3.9402 13.3765 3.65625 13.0913 3.65625 12.7395Z" fill="white"/>
</svg>
