<svg width="29" height="13" viewBox="0 0 29 13" fill="none" xmlns="http://www.w3.org/2000/svg">
<g clip-path="url(#clip0)">
<path d="M13.6431 0.812134V2.02595H13.425C12.5263 2.04509 11.827 2.35525 11.3231 2.94876C10.8155 3.54226 10.526 4.43826 10.4508 5.62911C10.9396 5.00114 11.5675 4.68715 12.3308 4.68715C13.143 4.68715 13.7897 5.02794 14.2672 5.70952C14.7447 6.39109 14.9854 7.28709 14.9854 8.3937C14.9854 9.57305 14.7222 10.5035 14.192 11.1889C13.6656 11.8743 12.955 12.2151 12.0639 12.2151C11.169 12.2151 10.4508 11.8092 9.90186 11.0013C9.36042 10.1934 9.08594 9.12122 9.08594 7.78487V7.23732C9.08594 5.6942 9.25138 4.46507 9.5785 3.54609C9.90562 2.63094 10.3907 1.94937 11.0299 1.5052C11.6691 1.06102 12.4624 0.831279 13.4137 0.815963H13.6431V0.812134ZM12.1015 5.878C11.7367 5.878 11.4021 6.01967 11.0938 6.30302C10.7855 6.58637 10.5636 6.94631 10.4283 7.38282V7.94569C10.4283 8.85701 10.5862 9.59985 10.902 10.1742C11.2179 10.7486 11.6051 11.0358 12.0639 11.0358C12.5639 11.0358 12.955 10.8022 13.237 10.3312C13.519 9.86023 13.6619 9.23992 13.6619 8.46645C13.6619 7.70446 13.519 7.08415 13.237 6.60169C12.955 6.11923 12.579 5.878 12.1015 5.878Z" fill="#4D4D4F"/>
<path d="M21.6028 7.26795C21.6028 8.92593 21.3659 10.1627 20.8884 10.986C20.4147 11.8054 19.6664 12.2189 18.6512 12.2189C17.6661 12.2189 16.9291 11.8245 16.4441 11.0396C15.9591 10.2546 15.7071 9.06761 15.6846 7.49003V5.56018C15.6846 3.91751 15.9252 2.69221 16.4027 1.88427C16.884 1.07251 17.6285 0.666626 18.6362 0.666626C19.6326 0.666626 20.3695 1.04953 20.8471 1.81535C21.3246 2.58116 21.5765 3.74137 21.6028 5.29597V7.26795ZM20.2605 5.31512C20.2605 4.12811 20.1327 3.25125 19.8732 2.68838C19.6138 2.1255 19.2039 1.84215 18.6362 1.84215C18.0835 1.84215 17.6811 2.11784 17.4217 2.67306C17.1623 3.22828 17.0307 4.06301 17.0194 5.17727V7.49386C17.0194 8.67705 17.1547 9.56539 17.4217 10.1627C17.6887 10.7562 18.0985 11.0549 18.6512 11.0549C19.1964 11.0549 19.5987 10.7754 19.8582 10.2125C20.1176 9.65346 20.2492 8.79575 20.2605 7.6432V5.31512Z" fill="#4D4D4F"/>
<path d="M28.3333 7.26795C28.3333 8.92593 28.0964 10.1627 27.6189 10.986C27.1451 11.8054 26.3969 12.2189 25.3817 12.2189C24.3966 12.2189 23.6596 11.8245 23.1746 11.0396C22.6895 10.2546 22.4376 9.06761 22.415 7.49003V5.56018C22.415 3.91751 22.6557 2.69221 23.1332 1.88427C23.6145 1.07251 24.359 0.666626 25.3704 0.666626C26.3668 0.666626 27.1038 1.04953 27.5813 1.81535C28.0588 2.58116 28.3107 3.74137 28.337 5.29597V7.26795H28.3333ZM26.991 5.31512C26.991 4.12811 26.8631 3.25125 26.6037 2.68838C26.3442 2.1255 25.9344 1.84215 25.3666 1.84215C24.8139 1.84215 24.4116 2.11784 24.1522 2.67306C23.8927 3.22828 23.7611 4.06301 23.7498 5.17727V7.49386C23.7498 8.67705 23.8852 9.56539 24.1522 10.1627C24.4191 10.7562 24.829 11.0549 25.3817 11.0549C25.9269 11.0549 26.3292 10.7754 26.5886 10.2125C26.8481 9.65346 26.9797 8.79575 26.991 7.6432V5.31512Z" fill="#4D4D4F"/>
</g>
<path d="M9.95475 7.77871C9.95475 10.3285 7.80112 12.3973 5.14432 12.3973C2.48751 12.3973 0.333496 10.3285 0.333496 7.77871C0.333496 5.22667 2.48712 3.15857 5.14393 3.15857C7.80073 3.15857 9.95475 5.22667 9.95475 7.77871Z" fill="white"/>
<path d="M9.27004 7.77885C9.27004 9.96604 7.42257 11.7402 5.14454 11.7402C2.86651 11.7402 1.01904 9.96604 1.01904 7.77885C1.01904 5.58938 2.86651 3.81641 5.14454 3.81641C7.42257 3.81641 9.27004 5.58938 9.27004 7.77885Z" fill="#4D4D4F"/>
<path d="M6.73606 8.33245H3.55216C3.23385 8.33245 2.97559 8.08445 2.97559 7.77877C2.97559 7.4731 3.23385 7.2251 3.55216 7.2251H6.73606C7.05437 7.2251 7.31263 7.4731 7.31263 7.77877C7.31263 8.08445 7.05437 8.33245 6.73606 8.33245Z" fill="white"/>
<defs>
<clipPath id="clip0">
<rect width="19.2475" height="11.5485" fill="white" transform="translate(9.08594 0.666626)"/>
</clipPath>
</defs>
</svg>
