<svg width="21" height="28" viewBox="0 0 21 28" fill="none" xmlns="http://www.w3.org/2000/svg">
<path d="M20.8301 24.0194C20.7695 23.4936 20.7102 22.9521 20.6488 22.4091C20.247 18.8052 19.8681 15.4018 19.5707 14.4444C19.4245 13.9744 19.0849 13.7441 18.8109 13.5604C18.5072 13.3532 18.2946 13.2097 18.2466 12.7667C18.7052 12.5259 19.0168 12.0665 19.0168 11.5407C19.0168 11.1122 18.8101 10.7283 18.4855 10.471C18.9984 9.91427 19.275 9.25863 19.275 8.57913C19.275 7.64942 18.7708 6.78305 17.8556 6.13992C16.9751 5.52141 15.8097 5.17932 14.5758 5.17932C13.3411 5.17932 12.1765 5.52102 11.2952 6.13992C10.38 6.78305 9.87665 7.64942 9.87665 8.57913C9.87665 9.25824 10.1523 9.91427 10.6653 10.471C10.3407 10.7283 10.1331 11.1122 10.1331 11.5407C10.1331 12.0665 10.4447 12.5259 10.9029 12.7667C10.8566 13.2097 10.6431 13.3532 10.3403 13.5604C10.0663 13.7445 9.72669 13.9748 9.57966 14.4444C9.28393 15.3979 8.9059 18.7887 8.50574 22.3786C8.44434 22.9314 8.38252 23.4834 8.32196 24.0198C8.1933 25.1567 8.14861 25.9437 8.6745 26.4911C9.36245 27.2054 10.8186 27.3332 14.5762 27.3332C18.3322 27.3332 19.7883 27.2054 20.4775 26.4911C21.0026 25.9434 20.9579 25.1563 20.8301 24.0194ZM11.6331 12.1834C11.2534 12.1834 10.9468 11.8949 10.9468 11.5403C10.9468 11.1865 11.2538 10.8983 11.6331 10.8983H17.5181C17.897 10.8983 18.2036 11.1865 18.2036 11.5403C18.2036 11.8949 17.8965 12.1834 17.5181 12.1834H11.6331ZM10.6895 8.57874C10.6895 7.67366 11.3632 6.87336 12.3895 6.39834C12.4672 6.5688 12.6477 6.69078 12.8578 6.69078C13.1385 6.69078 13.3661 6.47771 13.3661 6.21576C13.3661 6.16728 13.3582 6.11998 13.344 6.07658C13.5783 6.02263 13.8218 5.98392 14.0737 5.96281C14.1105 6.19231 14.3206 6.36824 14.5762 6.36824C14.831 6.36824 15.0415 6.19231 15.0775 5.96281C15.3298 5.98392 15.5729 6.02263 15.808 6.07658C15.793 6.11998 15.7851 6.16689 15.7851 6.21576C15.7851 6.47771 16.0127 6.69078 16.2926 6.69078C16.5035 6.69078 16.6848 6.5688 16.7616 6.39756C17.7888 6.87258 18.4621 7.67288 18.4621 8.57874C18.4621 9.1429 18.1906 9.69338 17.694 10.1481C17.6363 10.1422 17.5774 10.1375 17.5189 10.1375H11.6331C11.5742 10.1375 11.514 10.1422 11.4581 10.1481C10.961 9.69338 10.6895 9.1429 10.6895 8.57874ZM19.8719 25.9813C19.3886 26.4841 17.7787 26.5724 14.5758 26.5724C11.372 26.5724 9.76178 26.4841 9.27808 25.9813C8.97858 25.6685 9.02411 25.0328 9.12937 24.0992C9.18994 23.5612 9.25176 23.0107 9.31316 22.4564C9.69202 19.0581 10.0842 15.5449 10.3591 14.6567C10.4238 14.4471 10.5604 14.3478 10.8152 14.175C11.1452 13.9521 11.5817 13.655 11.6966 12.9431H17.4521C17.5678 13.655 18.0035 13.9521 18.3335 14.175C18.5891 14.3478 18.7257 14.4471 18.7896 14.6567C19.0661 15.5477 19.4775 19.2352 19.8397 22.4876C19.9007 23.0315 19.9612 23.5722 20.0201 24.0988C20.1267 25.0328 20.1739 25.6689 19.8719 25.9813Z" fill="#4D4D4F"/>
<path d="M17.6857 15.8347C17.6706 15.6259 17.4764 15.4668 17.2534 15.4817C17.0295 15.4957 16.8611 15.6768 16.8753 15.8855C16.9848 17.4001 17.3365 23.6954 17.3582 24.0015C17.3724 24.2037 17.5508 24.3577 17.7642 24.3577C17.773 24.3577 17.7817 24.3561 17.7914 24.3561C18.0144 24.3429 18.1844 24.1618 18.1694 23.9515C18.1477 23.6438 17.7959 17.3501 17.6857 15.8347Z" fill="#4D4D4F"/>
<path d="M12.8571 8.16234C13.1378 8.16234 13.3654 7.94849 13.3654 7.68654C13.3654 7.4246 13.1378 7.20996 12.8571 7.20996C12.5773 7.20996 12.3496 7.4246 12.3496 7.68654C12.3496 7.94849 12.5777 8.16234 12.8571 8.16234Z" fill="#4D4D4F"/>
<path d="M16.2912 8.16234C16.5719 8.16234 16.7996 7.94849 16.7996 7.68654C16.7996 7.4246 16.5719 7.20996 16.2912 7.20996C16.0113 7.20996 15.7837 7.4246 15.7837 7.68654C15.7837 7.94849 16.0113 8.16234 16.2912 8.16234Z" fill="#4D4D4F"/>
<path d="M14.5758 7.83973C14.8556 7.83973 15.0825 7.62666 15.0825 7.36393C15.0825 7.10199 14.8556 6.88892 14.5758 6.88892C14.2946 6.88892 14.0674 7.10199 14.0674 7.36393C14.0674 7.62666 14.2942 7.83973 14.5758 7.83973Z" fill="#4D4D4F"/>
<path d="M12.8277 3.90918C12.8277 4.17386 12.5975 4.38928 12.3147 4.38928C12.0319 4.38928 11.8018 4.17386 11.8018 3.90918C11.8018 3.6445 12.0319 3.42908 12.3147 3.42908C12.5979 3.42869 12.8277 3.64411 12.8277 3.90918Z" fill="#4D4D4F"/>
<path d="M14.3613 1.14673C14.3613 1.41142 14.1312 1.62684 13.8484 1.62684C13.5656 1.62684 13.3354 1.41142 13.3354 1.14673C13.3354 0.882049 13.5656 0.666626 13.8484 0.666626C14.1312 0.666626 14.3613 0.882049 14.3613 1.14673Z" fill="#4D4D4F"/>
<path d="M16.7129 2.02479C16.7129 2.28947 16.4828 2.50489 16.2 2.50489C15.9172 2.50489 15.687 2.28947 15.687 2.02479C15.687 1.7601 15.9172 1.54468 16.2 1.54468C16.4828 1.54468 16.7129 1.7601 16.7129 2.02479Z" fill="#4D4D4F"/>
<path d="M15.2763 3.39831C15.2763 3.663 15.0462 3.87842 14.7634 3.87842C14.4806 3.87842 14.2505 3.663 14.2505 3.39831C14.2505 3.13363 14.4806 2.91821 14.7634 2.91821C15.0462 2.91821 15.2763 3.13363 15.2763 3.39831Z" fill="#4D4D4F"/>
<path d="M17.4327 4.2561C17.4327 4.52078 17.2025 4.7362 16.9197 4.7362C16.6369 4.7362 16.4067 4.52078 16.4067 4.2561C16.4067 3.99142 16.6369 3.776 16.9197 3.776C17.2025 3.776 17.4327 3.99142 17.4327 4.2561Z" fill="#4D4D4F"/>
<path d="M10.7475 15.5174C10.7475 18.2773 8.4164 20.5167 5.54069 20.5167C2.66499 20.5167 0.333496 18.2773 0.333496 15.5174C0.333496 12.7551 2.66456 10.5166 5.54027 10.5166C8.41597 10.5166 10.7475 12.7551 10.7475 15.5174Z" fill="white"/>
<path d="M10.0061 15.5175C10.0061 17.8849 8.00636 19.8052 5.54063 19.8052C3.07489 19.8052 1.0752 17.8849 1.0752 15.5175C1.0752 13.1476 3.07489 11.2285 5.54063 11.2285C8.00636 11.2285 10.0061 13.1476 10.0061 15.5175Z" fill="#4D4D4F"/>
<path d="M7.26323 16.1167H3.81696C3.47241 16.1167 3.19287 15.8482 3.19287 15.5174C3.19287 15.1865 3.47241 14.9181 3.81696 14.9181H7.26323C7.60777 14.9181 7.88731 15.1865 7.88731 15.5174C7.88731 15.8482 7.60777 16.1167 7.26323 16.1167Z" fill="white"/>
</svg>
