<svg width="28" height="22" viewBox="0 0 28 22" fill="none" xmlns="http://www.w3.org/2000/svg">
<path d="M7.98184 3.54701C7.7218 3.41806 7.41269 3.52221 7.28512 3.78506L4.1597 10.0984C4.03213 10.3563 4.13517 10.6737 4.3903 10.8026C4.65035 10.9316 4.95945 10.8274 5.08702 10.5646L8.21244 4.25124C8.34492 3.99335 8.23698 3.67595 7.98184 3.54701Z" fill="#4D4D4F"/>
<path d="M17.3535 3.54701C17.0984 3.41806 16.7844 3.52221 16.6568 3.78506L11.9711 13.2625C11.8435 13.5204 11.9466 13.8378 12.2066 13.9667C12.4617 14.0957 12.7758 13.9915 12.9033 13.7287L17.589 4.25124C17.7166 3.99335 17.6135 3.67595 17.3535 3.54701Z" fill="#4D4D4F"/>
<path d="M12.6676 3.54701C12.4124 3.41806 12.0984 3.52221 11.9709 3.78506L7.28519 13.2625C7.15762 13.5204 7.26065 13.8378 7.51579 13.9667C7.77583 14.0957 8.08494 13.9915 8.21251 13.7287L12.9031 4.25124C13.0307 3.99335 12.9276 3.67595 12.6676 3.54701Z" fill="#4D4D4F"/>
<path d="M22.0444 3.54701C21.7843 3.41806 21.4752 3.52221 21.3428 3.78506L18.9975 8.52129C18.8699 8.78414 18.9729 9.09658 19.233 9.22553C19.493 9.35447 19.8021 9.25032 19.9297 8.99243L22.275 4.2562C22.4026 3.99335 22.2995 3.67595 22.0444 3.54701Z" fill="#4D4D4F"/>
<path d="M18.2169 0.333374H17.0345H16.8628H12.1771H9.78273C4.75359 0.333374 0.666504 4.11244 0.666504 8.75444V13.4907C0.666504 18.3162 5.25405 21.9117 10.0918 21.9117C12.4911 21.9117 14.753 21.0587 16.4702 19.5064C18.0648 18.0632 19.5957 17.1706 21.151 16.7837C24.8505 15.8563 27.3332 13.5799 27.3332 11.1201V6.38385C27.3283 2.40145 22.2599 0.333374 18.2169 0.333374ZM26.2881 11.125C26.2881 13.0592 24.0704 14.9686 20.8959 15.767C19.1737 16.1985 17.4957 17.1706 15.7735 18.7278C14.2525 20.1065 12.236 20.8653 10.0918 20.8653C5.54844 20.8653 1.70668 17.488 1.70668 13.4956V12.5633C3.35525 15.3901 6.67202 17.1805 10.0918 17.1805C12.4911 17.1805 14.753 16.3275 16.4702 14.7752C18.0648 13.332 19.5957 12.4393 21.151 12.0524C23.4178 11.4821 25.2283 10.4059 26.293 9.09168V11.125H26.2881ZM20.8959 11.0259C19.1737 11.4573 17.4957 12.4294 15.7735 13.9866C14.2525 15.3653 12.236 16.1241 10.0918 16.1241C5.54844 16.1241 1.70668 12.7517 1.70668 8.75444C1.70668 4.69269 5.32765 1.38477 9.77782 1.38477H12.1722H16.8579H17.0296H18.212C21.5386 1.38477 26.2832 3.04121 26.2832 6.38385C26.2881 8.32298 24.0704 10.2323 20.8959 11.0259Z" fill="#4D4D4F"/>
</svg>
