<svg width="24" height="29" viewBox="0 0 24 29" fill="none" xmlns="http://www.w3.org/2000/svg">
<path d="M7.09631 9.90051C8.67214 9.67905 10.596 8.47066 11.4758 7.15154C12.1428 6.15017 11.9301 5.50505 11.7465 5.21619C11.5628 4.92733 11.1761 4.59033 10.3591 4.59033C10.2141 4.59033 10.0498 4.59996 9.87577 4.62403C8.29993 4.84549 6.37607 6.04907 5.50114 7.373C4.83407 8.37438 5.04676 9.01949 5.23045 9.31317C5.41413 9.59721 5.90235 10.0642 7.09631 9.90051ZM6.0087 8.40808C6.05703 8.24439 6.14888 8.06626 6.26972 7.8785C6.9948 6.79047 8.70598 5.71688 10.0063 5.53394C10.2335 5.50024 10.4365 5.50024 10.6008 5.52431C10.6008 5.52431 10.915 5.59171 10.9682 5.67355C11.0311 5.76502 10.9682 6.10684 10.9682 6.10684C10.9344 6.21757 10.8619 6.40051 10.7072 6.64123C9.98211 7.72926 8.27093 8.80285 6.97063 8.98579C6.84978 9.00505 6.73377 9.00986 6.62259 9.00986C6.52108 9.00986 6.43891 9.00024 6.37607 8.99542C6.37607 8.99542 6.05703 8.93284 5.98453 8.82211C5.91685 8.70656 6.0087 8.40808 6.0087 8.40808Z" fill="#4D4D4F"/>
<path d="M21.9412 21.4198C21.3998 21.2946 20.8439 21.3427 20.3364 21.5594L19.9787 21.7086L18.8766 19.9707L19.0264 19.7251C19.4615 19.0271 19.5291 18.3675 19.2149 17.8716L18.5237 16.7788L18.6977 16.5284C20.9068 13.3943 21.0083 9.2829 18.9587 6.04288L16.5273 2.20106C15.7346 1.01193 14.2168 0.496796 12.143 0.698997C8.02461 1.11784 3.1231 4.19418 0.976875 7.72307C-0.105904 9.50436 -0.294424 11.1364 0.445153 12.3063L2.87657 16.1481C4.62642 18.9163 7.63307 20.5676 10.9152 20.5676C11.4421 20.5676 11.969 20.5243 12.4862 20.4376L12.7859 20.3847L13.4772 21.4775C13.8155 22.0167 14.4343 22.1275 14.8935 22.1275C15.0047 22.1275 15.1207 22.1178 15.2367 22.1082L15.5219 22.0745L16.624 23.8125L16.334 24.0676C15.3672 24.9246 15.1642 26.3448 15.8554 27.4377C16.3436 28.2079 17.1799 28.6653 18.0935 28.6653C18.5865 28.6653 19.0748 28.5257 19.4953 28.2609C19.998 27.9432 20.3847 27.4617 20.5781 26.9033L20.6989 26.5566L21.0615 26.5951C21.6512 26.6577 22.2554 26.5181 22.7581 26.2052C23.3527 25.8297 23.7684 25.2471 23.9231 24.5635C24.0778 23.8751 23.9569 23.1722 23.5847 22.58C23.2174 21.9879 22.6325 21.5738 21.9412 21.4198ZM1.23307 11.8152C0.696513 10.9631 0.889866 9.64398 1.76962 8.19968C3.74666 4.95003 8.44032 2.00367 12.2349 1.62816C13.9267 1.45966 15.2077 1.85443 15.7442 2.70175C16.2808 3.54907 16.0826 4.86819 15.2029 6.31729C13.2258 9.56695 8.53216 12.5133 4.7376 12.8888C4.47174 12.9129 4.22038 12.9273 3.98352 12.9273C2.66388 12.9273 1.68745 12.5326 1.23307 11.8152ZM14.8838 21.1983C14.705 21.1983 14.56 21.1742 14.4488 21.1261L14.3231 21.0683L13.4047 19.6144C13.2983 19.4507 13.0953 19.3641 12.9068 19.4122C12.2591 19.5663 11.592 19.6433 10.9249 19.6433C10.9249 19.6433 10.9249 19.6433 10.9201 19.6433C7.95694 19.6433 5.24515 18.1557 3.66932 15.657L2.46086 13.7458L3.38413 13.8228C3.83367 13.8613 4.32189 13.8565 4.83911 13.8035C8.95754 13.3943 13.8639 10.318 16.0053 6.78909C16.2711 6.35099 16.4887 5.91289 16.6482 5.48923L16.972 4.62266L18.1805 6.53394C20.1382 9.62472 19.9013 13.611 17.6004 16.4514C17.4748 16.6055 17.4651 16.8221 17.5714 16.9906L18.4947 18.4445L18.4899 18.5841C18.4802 19.0511 17.9243 19.8599 16.8899 20.5099C15.8748 21.1502 15.0965 21.1983 14.8838 21.1983ZM23.0288 24.3613C22.9273 24.809 22.6566 25.1846 22.2699 25.4301C21.7382 25.7671 21.0421 25.7767 20.4911 25.459C20.3461 25.3771 20.1527 25.3819 20.0125 25.4686C19.8675 25.5601 19.7853 25.7238 19.795 25.8971C19.8482 26.5326 19.5436 27.144 19.0023 27.481C18.7267 27.6543 18.4125 27.7458 18.0887 27.7458C17.4941 27.7458 16.9527 27.4473 16.6385 26.9466C16.1358 26.1474 16.3775 25.0931 17.1751 24.5924C17.2621 24.5346 17.3636 24.4865 17.4699 24.448C17.6004 24.3998 17.6971 24.2939 17.7406 24.1591C17.7841 24.0291 17.7648 23.8847 17.6923 23.7691L16.4452 21.8001L16.8899 21.5738C17.0445 21.492 17.2041 21.4005 17.3684 21.2994C17.5279 21.1983 17.6778 21.0924 17.8228 20.9865L18.224 20.688L19.4663 22.6522C19.5388 22.7678 19.6645 22.8448 19.7998 22.8641C20.0125 22.8544 20.1044 22.8111 20.1769 22.7437C20.2639 22.6619 20.3461 22.5993 20.4379 22.5415C20.8149 22.3056 21.2887 22.2238 21.7285 22.32C22.1733 22.4211 22.5551 22.6859 22.8016 23.0759C23.053 23.461 23.1304 23.9184 23.0288 24.3613Z" fill="#4D4D4F"/>
</svg>
