<svg width="26" height="28" viewBox="0 0 26 28" fill="none" xmlns="http://www.w3.org/2000/svg">
<path d="M20.2698 1.58964H6.95728C6.69925 1.58964 6.49378 1.36772 6.49378 1.10039C6.49378 0.858291 6.30743 0.666626 6.08285 0.666626C5.85826 0.666626 5.67191 0.858291 5.67191 1.10039C5.67191 1.84688 6.24531 2.45214 6.95251 2.45214H20.265C22.5682 2.45214 24.4413 4.42931 24.4413 6.85539C24.4413 9.02423 22.9504 10.8299 20.9913 11.1931C22.0139 9.97752 22.6398 8.37862 22.6398 6.62338V5.7054C22.6398 4.95892 22.0664 4.35366 21.3592 4.35366H9.57582C6.69448 4.35366 4.24796 5.52887 2.50864 7.74815C0.888774 9.81107 0 12.686 0 15.8435C0 22.1785 4.88348 27.3333 10.8851 27.3333H16.1222C16.2655 27.3333 16.3945 27.2576 16.471 27.1265C16.5427 27.0004 16.5522 26.839 16.4901 26.7079L15.7017 25.0384L16.5044 22.9149C16.5666 22.7535 16.5283 22.5719 16.4136 22.4458C16.2942 22.3248 16.1222 22.2895 15.9693 22.355L10.8086 24.6248C7.94163 24.5794 5.62412 22.1079 5.62412 19.0665C5.62412 16.0704 7.88428 13.6192 10.6987 13.5132L12.5527 15.8637C12.6196 15.9494 12.6579 16.0604 12.6579 16.1764V18.6075C12.6579 18.8445 12.8394 19.0362 13.0688 19.0362C13.2934 19.0362 13.4797 18.8445 13.4797 18.6075V16.1764C13.4797 15.8586 13.3746 15.5509 13.1835 15.3088L11.7643 13.5082H12.8824L14.7412 15.8586C14.8129 15.9444 14.8511 16.0553 14.8511 16.1713V18.6024C14.8511 18.8395 15.0327 19.0312 15.2621 19.0312C15.4866 19.0312 15.673 18.8395 15.673 18.6024V16.1713C15.673 15.8536 15.5679 15.5459 15.3767 15.3038L13.9576 13.5031H15.0757L16.9345 15.8536C17.0062 15.9393 17.0396 16.0503 17.0396 16.1663V18.5974C17.0396 18.8345 17.2212 19.0261 17.4506 19.0261C17.6751 19.0261 17.8615 18.8345 17.8615 18.5974V16.1663C17.8615 15.8485 17.7564 15.5408 17.5652 15.2987L16.1461 13.4981C17.613 13.4981 18.9701 12.9836 20.0595 12.111C20.0643 12.111 20.0691 12.111 20.0739 12.111H20.2937C23.046 12.111 25.2871 9.7455 25.2871 6.84026C25.2632 3.95015 23.0221 1.58964 20.2698 1.58964ZM21.8227 5.7054V6.62842C21.8227 9.94725 19.2663 12.6457 16.1222 12.6457H10.8851C10.5793 12.6457 10.2782 12.6709 9.98676 12.7163V5.21615H21.3592C21.6173 5.21615 21.8227 5.43808 21.8227 5.7054ZM9.16488 5.22624V12.908C8.50069 13.1148 7.88428 13.4376 7.33477 13.8562L3.06293 8.39376C3.08682 8.36349 3.11071 8.32819 3.1346 8.29792C4.635 6.38632 6.71359 5.33216 9.16488 5.22624ZM5.32787 21.6842L3.29706 22.8191C1.77755 20.9831 0.850547 18.5974 0.817099 15.9847L4.99338 17.4525C4.86436 17.972 4.79747 18.5117 4.79747 19.0715C4.80225 19.9996 4.9886 20.8822 5.32787 21.6842ZM14.8846 25.2502L15.4628 26.4708H11.296V25.346L15.3815 23.5504L14.8702 24.8971C14.8272 25.0131 14.832 25.1392 14.8846 25.2502ZM10.4742 25.4721V26.4557C7.91773 26.3447 5.60501 25.23 3.88002 23.4647L5.71013 22.4408C6.71837 24.1557 8.46724 25.3359 10.4742 25.4721ZM5.25619 16.6303L0.836212 15.0768C0.946114 12.8222 1.54819 10.7543 2.56598 9.12007L6.70403 14.406C6.08285 15.0264 5.5859 15.7829 5.25619 16.6303Z" fill="#4D4D4F"/>
<path d="M14.7369 9.08771C15.1245 9.08771 15.4387 8.77349 15.4387 8.38596C15.4387 7.99842 15.1245 7.6842 14.7369 7.6842C14.3494 7.6842 14.0352 7.99842 14.0352 8.38596C14.0326 8.77088 14.3468 9.08771 14.7369 9.08771ZM14.7369 8.12935C14.8757 8.12935 14.9909 8.24456 14.9909 8.38334C14.9909 8.52212 14.8783 8.63733 14.7369 8.63733C14.5955 8.63733 14.4829 8.52212 14.4829 8.38334C14.4803 8.24456 14.5955 8.12935 14.7369 8.12935Z" fill="#4D4D4F"/>
</svg>
