<svg width="16" height="28" viewBox="0 0 16 28" fill="none" xmlns="http://www.w3.org/2000/svg">
<path d="M13.9372 14.7673L13.8831 14.7853L13.9372 14.7673L13.9326 14.7582C13.1801 12.914 12.4051 11.011 12.4051 8.62436C12.4051 6.20155 10.5982 4.15844 8.19647 3.86463L7.86753 3.82395L7.93512 3.4985C8.10184 2.71199 8.52541 1.98424 9.12471 1.45538C9.30946 1.29266 9.32748 1.00337 9.16527 0.813521C9.01206 0.637234 8.71016 0.614634 8.52992 0.772839C7.6963 1.51415 7.15107 2.5357 7.00237 3.64766L6.97534 3.86463L6.75905 3.90531C4.48801 4.32568 2.8388 6.30551 2.8388 8.61984C2.8388 11.002 2.06376 12.9049 1.31125 14.7492C0.63535 16.399 0 17.954 0 19.6897C0 23.9025 3.41557 27.3333 7.6197 27.3333C11.8193 27.3333 15.2394 23.9025 15.2394 19.6897C15.2394 17.963 14.6086 16.4081 13.9372 14.7673ZM7.6197 26.4293C3.91574 26.4293 0.901206 23.4053 0.901206 19.6897C0.901206 18.1348 1.50501 16.6612 2.14036 15.1017C2.73065 13.6643 3.39304 12.0326 3.64087 10.1296L3.67692 9.85384L3.95179 9.86288C4.20863 9.87192 4.87552 9.8674 5.6055 9.59619L5.85784 9.50127L5.9795 9.74083C6.45714 10.6675 7.17811 11.1782 7.20965 11.2008C7.48001 11.3952 7.86753 11.3862 8.13338 11.1782C8.20548 11.1195 8.86787 10.5906 9.29144 9.66851L9.40409 9.42442L9.66093 9.51031C10.1881 9.67755 10.6838 9.71371 11.0082 9.71371C11.1029 9.71371 11.1885 9.70919 11.2651 9.70919L11.549 9.69111L11.585 9.97588C11.8103 11.9286 12.4952 13.6101 13.099 15.0972C13.7389 16.6612 14.3427 18.1393 14.3427 19.6942C14.3382 23.4053 11.3237 26.4293 7.6197 26.4293ZM11.3372 8.76448L11.2065 8.79612C10.9677 8.8142 10.1205 8.8368 9.341 8.38479C9.21934 8.31246 9.06163 8.30342 8.93546 8.36219C8.80028 8.42095 8.70565 8.53847 8.67411 8.68312C8.52541 9.37018 8.15141 9.88548 7.86302 10.1974L7.65124 10.4279L7.42594 10.2064C7.12403 9.90356 6.723 9.40182 6.54726 8.72832C6.51121 8.58819 6.40758 8.47519 6.27239 8.42547C6.22283 8.40739 6.16425 8.39383 6.11018 8.39383C6.02456 8.39383 5.93895 8.41643 5.86685 8.46615C5.19095 8.90009 4.45196 8.96789 4.06895 8.96789H3.95179L3.72649 8.78708L3.74001 8.63792V8.6334C3.74451 6.4818 5.48835 4.7325 7.6242 4.7325C9.70599 4.7325 11.4048 6.3688 11.4949 8.45711L11.4994 8.58367L11.3372 8.76448Z" fill="#4D4D4F"/>
<path d="M7.92156 23.4855C5.53336 23.4855 3.58675 21.5328 3.58675 19.1371C3.58675 18.8885 3.38398 18.6851 3.13615 18.6851C2.88832 18.6851 2.68555 18.8885 2.68555 19.1371C2.68555 22.0345 5.03319 24.3895 7.92156 24.3895C8.16939 24.3895 8.37216 24.1861 8.37216 23.9375C8.37216 23.6889 8.16939 23.4855 7.92156 23.4855Z" fill="#4D4D4F"/>
</svg>
