<svg width="16" height="28" viewBox="0 0 16 28" fill="none" xmlns="http://www.w3.org/2000/svg">
<path d="M10.2358 5.67533C10.2276 5.64587 10.2194 5.61642 10.207 5.59118C9.60262 4.32898 7.80995 3.77782 5.84458 4.24483L5.12093 4.41733L6.18996 1.21555C6.26397 0.996771 6.14884 0.76116 5.93915 0.689635C5.72945 0.613903 5.49509 0.731709 5.42519 0.946283L4.36439 4.11861L2.9212 1.10616C2.82663 0.908417 2.57582 0.820063 2.37846 0.916832C2.27978 0.96732 2.20988 1.05147 2.17288 1.15665C2.13998 1.26183 2.1441 1.37122 2.19344 1.4722L3.63662 4.48044L0.536442 3.39495C0.326748 3.31922 0.0923842 3.43702 0.0224862 3.6516C-0.0515234 3.86617 0.0636027 4.10599 0.273297 4.17752L3.39815 5.27142L2.81841 5.75527C1.23131 7.07216 0.577559 8.82241 1.19431 10.1099C1.20664 10.1393 1.22309 10.1646 1.24365 10.1856L14.5202 27.179C14.6353 27.3263 14.8491 27.3768 15.0177 27.2926C15.1904 27.2085 15.2767 27.0149 15.2315 26.8214L10.2358 5.67533ZM9.29014 19.1598L10.7621 18.4193C10.8608 18.3689 10.9307 18.2847 10.9677 18.1795C11.0047 18.0743 10.9965 17.9607 10.9471 17.864C10.8526 17.6662 10.5976 17.5779 10.4044 17.6746L8.76796 18.4951L3.22135 11.3931L6.58879 9.70595C6.79026 9.60498 6.87249 9.35674 6.77381 9.15059C6.67924 8.95284 6.42432 8.86449 6.23107 8.96126L2.70328 10.7283L1.87684 9.63864C1.39578 8.39326 2.62105 6.56307 4.60697 5.57014C5.93092 4.90538 7.38645 4.71605 8.41025 5.07368C8.87897 5.23776 9.22435 5.49862 9.42582 5.85624L9.47105 5.96984L10.8978 12.0242L8.31568 13.3201C8.217 13.3705 8.1471 13.4547 8.1101 13.5599C8.07309 13.6651 8.08132 13.7787 8.13065 13.8754C8.22522 14.0774 8.47603 14.1615 8.67339 14.0648L11.091 12.853L14.0062 25.2016L9.29014 19.1598Z" fill="#4D4D4F"/>
</svg>
